<svg xmlns="http://www.w3.org/2000/svg" width="192" height="108" viewBox="0 0 1920 1080">
  <defs>
    <style>
      .cls-1 {
        fill: #fc0;
        stroke: #1a5dac;
        stroke-linejoin: round;
        stroke-width: 15px;
        fill-rule: evenodd;
      }
    </style>
  </defs>
  <path id="P" class="cls-1" d="M136.235,442.7q9.123,22.86,16.395,41.557t11.635,29.212q4.362,10.514,5.156,10.511,1.846-1.707,9.123-9.167t11.767-12.1q4.494-4.641,5.025-4.645L316.711,818.544l69.282-46.2L338.4,618.093q16.125-12.954,48.788-42.78t65.05-69.913q32.39-40.089,32.394-67.469A31.754,31.754,0,0,0,481.453,424a96.954,96.954,0,0,0-20.493-27.99A100.876,100.876,0,0,0,432.4,377.062a146.622,146.622,0,0,0-33.98-10.267q-11.9-1.953-50.242-1.956a291.551,291.551,0,0,0-44.954,3.423q-28.559,4.4-59.762,11.856T184.1,395.885q-28.162,8.313-60.158,18.089Q127.112,419.842,136.235,442.7ZM354,465.554A116.854,116.854,0,0,1,377.531,468q4.227,0.732,4.231,5.378,0,11.979-24.328,38.623t-40.723,42.046l-21.684-72.114q24.06-16.374,58.969-16.378h0Z"/>
  <path id="K" class="cls-1" d="M548.276,382.7L579,372.125l51.412,362.3,101.3-13.711L717.276,618.293l232.181,92.745L936.9,627.477,704.012,487.745l91.457-161.62-78.656-51.688-52.231,66.938L658.5,272.538,554.157,329.857Z"/>
  <path id="O" class="cls-1" d="M551.07,497.136a120.933,120.933,0,0,0-45.134,8.8A187.983,187.983,0,0,0,463.2,530.131a304.563,304.563,0,0,0-39.372,35.213q-31.848,33.588-31.85,79.9a120.483,120.483,0,0,0,12.4,54q12.4,25.155,31.29,36.989,28.007,17.161,62.58,17.163a131.045,131.045,0,0,0,30.409-3.7,153.465,153.465,0,0,0,32.171-11.911,180.863,180.863,0,0,0,33.05-21.379,264.738,264.738,0,0,0,33.21-32.4,160.4,160.4,0,0,0,18.726-26.632,144.309,144.309,0,0,0,13.2-31.293,114.207,114.207,0,0,0,4.722-31.736q0-44.682-37.932-71.463Q589,497.137,551.07,497.136h0Zm45.455,81.228q0,19.68-11.044,33t-27.208,13.316q-13.126,0-26.248-9.765-10.887-7.99-10.884-25.153a46.614,46.614,0,0,1,5.122-21.158,41.259,41.259,0,0,1,15.925-16.793q10.8-6.582,26.168-6.584-12.807,6.513-18.646,15.314t-5.842,17.828a27.345,27.345,0,0,0,1.681,9.174,17.431,17.431,0,0,0,4.241,7.1,15.9,15.9,0,0,0,11.364,4.586q10.4,0,20.166-10.8t12.964-27.372a65,65,0,0,1,2.241,17.311h0Z"/>
  <path id="é" class="cls-1" d="M950.541,479.028a84.2,84.2,0,0,1-25.405,15.553,71.239,71.239,0,0,1-28.682,4.677L1014.12,379.279a124.613,124.613,0,0,0-40.313-23.932,158.78,158.78,0,0,0-49.315-9.638,172.073,172.073,0,0,0-39,2.846,165.433,165.433,0,0,0-36.981,11.675A152.665,152.665,0,0,0,815.088,380.8q-12.966,10.526-25.245,37.719a148.417,148.417,0,0,0-13.4,55.685q-1.416,36.087,17.6,60.039,10.976,13.938,31.98,21.417t48.123,8.545a251.786,251.786,0,0,0,61.629-5.288Q966.8,552.425,989.612,540t29.4-28.141l-47.348-57.211A123.116,123.116,0,0,1,950.541,479.028Zm-99.958-1.161Q847.5,467.1,846.308,460.96a55.051,55.051,0,0,1-.939-12.782q0.714-18.232,14.048-32.927,4.539-5.529,15.077-9.3a57.048,57.048,0,0,1,21.634-3.336,47.759,47.759,0,0,1,20.359,5.554ZM838.541,302.2l133.843-18.149-44.427-68.7-111.7,51.734Z"/>
  <path id="F" class="cls-1" d="M1081.68,736.844q17.61,2.238,38.94,2.85t30.39,0.53l10.7-221.134,132.7-7.317,3.71-88.328-130.28,3.678,4.62-76.372,173.84-6.04,5.78-106.566-305.69,5.818L1027.1,358.68l35.43-1.667-21.43,369.25q12.8,7.048,40.58,10.581h0Z"/>
  <path id="n" class="cls-1" d="M1395.53,548.516l-70.58-4.078-13.58,95.385q-2.715,11.262-3.78,17.279-2.46,13.99-3.64,26.276t-1.91,26.75q-0.735,14.462-1.15,29.148l88.02,5.983q3.645-39.107,8.06-64.155,2.19-12.36,4.59-21.331a122.652,122.652,0,0,1,5.36-15.992,67.021,67.021,0,0,1,6.61-12.251q15.225-21.465,24.37-19.849,7.035,1.242,11.47,19.3,11.1,48.087-.16,111.843-2.7,15.291-4.48,23.36l74.26,8.92q8.205-22.868,12.8-37.573a229.282,229.282,0,0,0,7.01-28.366q4.56-25.862,1.36-62.153-1.4-17.855-15.98-41.061t-28.78-34.266q-11.79-9.291-29.03-12.338a124.334,124.334,0,0,0-27.48-1.582q-14.64.685-35.23,3.255Z"/>
  <path id="i" class="cls-1" d="M1329.83,491.809l-94.06,24.035-13.51,39.195,26.83-2.25L1232.25,728.8l80.28,5.5Zm-59.14-94.054a49.563,49.563,0,0,0-10.47,25.124,36.684,36.684,0,0,0,4.35,17.613,32.525,32.525,0,0,0,12.48,12.617,51.159,51.159,0,0,0,19.89,6.208,108.167,108.167,0,0,0,13.96.35q4.9-.408,10.91-5.658a54.463,54.463,0,0,0,10.73-13.063,39.675,39.675,0,0,0,5.67-15.828,22.15,22.15,0,0,0-.96-9.9q-1.635-4.343-6.82-10.526a50.3,50.3,0,0,0-13.83-11.12q-8.655-4.937-21.21-6.448Q1279.49,386.537,1270.69,397.755Z"/>
  <path id="d" class="cls-1" d="M1638.09,636.149q-2.79,13.069,2.45,19.013a19.076,19.076,0,0,0,9.41,4.824l-8.76,40.932a65.465,65.465,0,0,1-8.68-1.054q-16.215-3.468-29.92-16.647-15.54-14.778-11.8-32.265a38.479,38.479,0,0,1,8.15-16.243,58.851,58.851,0,0,1,15.8-13.4,79.3,79.3,0,0,1,21.74-8.615,72.094,72.094,0,0,1,23.99-1.9q-18.36,6.527-22.38,25.358h0Zm29.94-60.717q-3.87-1.227-11.56-2.874a128.625,128.625,0,0,0-56.82.91q-29.175,6.825-59.3,25.7-34.98,22.263-44.88,68.574a130.366,130.366,0,0,0-.52,53.243q5.235,26.342,20.69,44.518a94.331,94.331,0,0,0,24.26,19.253,112.543,112.543,0,0,0,32.5,12.177,132.543,132.543,0,0,0,48,1.222l-2.51,11.722,94.53,15.394,22.7-118.332a121.522,121.522,0,0,0,4.37-16.349,143.535,143.535,0,0,0,3.18-23.031l50.45-261.307L1698.5,423.8Z"/>
</svg>
